<svg xmlns="http://www.w3.org/2000/svg" width="47.496" height="48" viewBox="0 0 47.496 48">
  <g>
    <g>
      <path d="M27.062,0,0,48H32.876V0Zm-1,42.15-15.647.006L26.063,14.4Z" fill="#79ccb8"/>
      <g>
        <rect x="29.625" y="4.049" width="3.252" height="1.5" fill="#525c6b"/>
        <rect x="29.625" y="8.719" width="3.252" height="1.5" fill="#525c6b"/>
        <rect x="29.625" y="13.389" width="3.252" height="1.5" fill="#525c6b"/>
        <rect x="29.625" y="18.058" width="3.252" height="1.5" fill="#525c6b"/>
        <rect x="29.625" y="22.727" width="3.252" height="1.5" fill="#525c6b"/>
        <rect x="29.625" y="27.397" width="3.252" height="1.5" fill="#525c6b"/>
        <rect x="29.625" y="32.067" width="3.252" height="1.5" fill="#525c6b"/>
        <rect x="29.625" y="36.736" width="3.252" height="1.5" fill="#525c6b"/>
        <rect x="29.625" y="41.405" width="3.252" height="1.5" fill="#525c6b"/>
      </g>
    </g>
    <g>
      <path d="M41.668,3.75,39.877,7.075a12.573,12.573,0,0,0,7.619,0L45.705,3.75A12.6,12.6,0,0,1,41.668,3.75Z" fill="#c6c6c6"/>
      <path d="M45.705,3.75,43.686,0,41.667,3.75A12.6,12.6,0,0,0,45.705,3.75Z" fill="#525c6b"/>
      <path d="M39.877,44.03V45.8a2.2,2.2,0,0,0,2.2,2.2h3.211a2.2,2.2,0,0,0,2.2-2.2V44.03A12.558,12.558,0,0,1,39.877,44.03Z" fill="#db5743"/>
      <path d="M39.877,7.075V44.03a12.575,12.575,0,0,0,3.81.591V7.667A12.576,12.576,0,0,1,39.877,7.075Z" fill="#fddc85"/>
      <path d="M47.5,7.075a12.576,12.576,0,0,1-3.81.592V44.621a12.579,12.579,0,0,0,3.81-.591V7.075Z" fill="#ffbd66"/>
    </g>
  </g>
</svg>
