<?xml version="1.0" encoding="utf-8"?>
<!-- Generator: Adobe Illustrator 24.3.0, SVG Export Plug-In . SVG Version: 6.00 Build 0)  -->
<svg version="1.1" id="Layer_1" xmlns="http://www.w3.org/2000/svg" xmlns:xlink="http://www.w3.org/1999/xlink" x="0px" y="0px"
	 viewBox="0 0 200 200" enable-background="new 0 0 200 200" xml:space="preserve">
<path fill="#282828" d="M124.232,129.198c-0.3,0-0.601-0.1-0.901-0.2l-23.099-11.1l-23.1,11.1c-0.6,0.3-1.1,0.3-1.7-0.1
	c-0.6-0.4-0.7-1-0.7-1.7v-56c0-1.1,0.5-2.1,1.6-2.1h47.999c1.1,0,2.401,1,2.401,2.1v56c0,0.7-0.6,1.3-1.1,1.7
	C125.232,129.098,124.632,129.198,124.232,129.198z M100.232,113.698c0.3,0,0.8,0.1,1.1,0.2l21.4,10.1v-50.9h-44v50.9l20.9-10.1
	C99.832,113.798,99.932,113.698,100.232,113.698z"/>
<path fill="#282828" d="M100.232,158.198c-0.4,0-0.9-0.1-1.3-0.4l-24-19.5c-0.9-0.7-1-2-0.3-2.8c0.7-0.9,2-1,2.8-0.3l22.8,18.4
	l22.7-19.4c0.8-0.7,2.1-0.6,2.8,0.2s0.599,2.1-0.2,2.8l-24,20.5C101.132,157.998,100.732,158.198,100.232,158.198z"/>
<path fill="#282828" d="M110.232,149.098h-20c-1.1,0-2-0.9-2-2c0-1.1,0.9-2,2-2h20c1.099,0,2,0.9,2,2
	C112.232,148.198,111.331,149.098,110.232,149.098z"/>
<path fill="#282828" d="M100.632,107.198c-1.1,0-2-0.9-2-2v-32c0-1.1,0.9-2,2-2c1.1,0,2,0.9,2,2v32
	C102.632,106.298,101.732,107.198,100.632,107.198z"/>
<path fill="#282828" d="M124.232,65.198h-48c-1.1,0-2-0.9-2-2v-6.8c0-8.4,6.8-15.2,15.3-15.2h21.5c8.4,0,15.2,6.8,15.2,15.3v6.7
	C126.232,64.298,125.331,65.198,124.232,65.198z M78.232,61.198h44v-4.8c0-6.2-5-11.2-11.2-11.2h-21.5c-6.3,0-11.3,5-11.3,11.3
	V61.198z"/>
</svg>
